<svg width="53" height="53" viewBox="0 0 53 53" fill="none" xmlns="http://www.w3.org/2000/svg">
<path d="M25.3958 4.41667C15.0387 4.41667 6.625 12.8304 6.625 23.1875C6.625 33.5446 15.0387 41.9583 25.3958 41.9583H26.5V48.5833C37.2325 43.4158 44.1667 33.125 44.1667 23.1875C44.1667 12.8304 35.7529 4.41667 25.3958 4.41667ZM27.6042 36.4375H23.1875V32.0208H27.6042V36.4375ZM28.4875 25.8817C28.4654 25.9038 28.4433 25.9479 28.4212 25.9921C28.3108 26.1688 28.2004 26.3454 28.1121 26.5221C28.0679 26.5883 28.0458 26.6767 28.0237 26.765C27.9575 26.9196 27.8912 27.0742 27.8471 27.2288C27.6925 27.6925 27.6262 28.1783 27.6262 28.7304H23.1875C23.1875 27.6042 23.3642 26.6546 23.6292 25.8596C23.6292 25.8375 23.6292 25.8154 23.6512 25.7933C23.6733 25.705 23.7396 25.6608 23.7617 25.5725C23.8942 25.2192 24.0487 24.91 24.2475 24.6008C24.3137 24.4904 24.4021 24.38 24.4683 24.2696C24.5346 24.1813 24.5787 24.0708 24.645 24.0046L24.6671 24.0267C26.5221 21.5975 29.5475 20.8467 29.7904 18.1083C29.9892 15.9442 28.4433 13.8463 26.3233 13.4046C24.0267 12.9188 21.9508 14.2658 21.2442 16.2313C20.935 17.0263 20.2062 17.6667 19.3008 17.6667H18.8592C17.5342 17.6667 16.5625 16.3638 16.9379 15.0829C17.5567 13.0522 18.8858 11.312 20.6821 10.1807C22.4785 9.04937 24.6221 8.60245 26.7208 8.92167C30.4529 9.47376 33.4342 12.5433 34.0746 16.2754C35.0462 21.6638 30.475 22.9667 28.4875 25.8817Z" fill="#AAC953"/>
</svg>
