<svg width="26" height="25" viewBox="0 0 26 25" fill="none" xmlns="http://www.w3.org/2000/svg">
<path d="M13 2.25098C16.4734 2.25098 16.8848 2.26562 18.2508 2.32422C19.5203 2.37793 20.2059 2.58301 20.6629 2.75391C21.2672 2.97852 21.7039 3.25195 22.1559 3.68652C22.6129 4.12598 22.8922 4.54102 23.1258 5.12207C23.3035 5.56152 23.5168 6.22558 23.5727 7.4414C23.6336 8.75976 23.6488 9.15527 23.6488 12.4902C23.6488 15.8301 23.6336 16.2256 23.5727 17.5391C23.5168 18.7598 23.3035 19.4189 23.1258 19.8584C22.8922 20.4395 22.6078 20.8594 22.1559 21.2939C21.6988 21.7334 21.2672 22.002 20.6629 22.2266C20.2059 22.3975 19.5152 22.6025 18.2508 22.6562C16.8797 22.7148 16.4684 22.7295 13 22.7295C9.52656 22.7295 9.11524 22.7148 7.74922 22.6562C6.47969 22.6025 5.79414 22.3975 5.33711 22.2266C4.73281 22.002 4.29609 21.7285 3.84414 21.2939C3.38711 20.8545 3.10781 20.4395 2.87422 19.8584C2.69648 19.4189 2.4832 18.7549 2.42734 17.5391C2.36641 16.2207 2.35117 15.8252 2.35117 12.4902C2.35117 9.15039 2.36641 8.75488 2.42734 7.4414C2.4832 6.2207 2.69648 5.56152 2.87422 5.12207C3.10781 4.54102 3.39219 4.12109 3.84414 3.68652C4.30117 3.24707 4.73281 2.97852 5.33711 2.75391C5.79414 2.58301 6.48477 2.37793 7.74922 2.32422C9.11524 2.26562 9.52656 2.25098 13 2.25098ZM13 0C9.4707 0 9.02891 0.0146484 7.64258 0.0732422C6.26133 0.131836 5.31172 0.34668 4.48906 0.654297C3.63086 0.976562 2.90469 1.40137 2.18359 2.09961C1.45742 2.79297 1.01563 3.49121 0.680469 4.31152C0.360547 5.10742 0.137109 6.01562 0.0761719 7.34375C0.0152344 8.68164 0 9.10644 0 12.5C0 15.8936 0.0152344 16.3184 0.0761719 17.6514C0.137109 18.9795 0.360547 19.8926 0.680469 20.6836C1.01563 21.5088 1.45742 22.207 2.18359 22.9004C2.90469 23.5937 3.63086 24.0234 4.48398 24.3408C5.31172 24.6484 6.25625 24.8633 7.6375 24.9219C9.02383 24.9805 9.46563 24.9951 12.9949 24.9951C16.5242 24.9951 16.966 24.9805 18.3523 24.9219C19.7336 24.8633 20.6832 24.6484 21.5059 24.3408C22.359 24.0234 23.0852 23.5937 23.8063 22.9004C24.5273 22.207 24.9742 21.5088 25.3043 20.6885C25.6242 19.8926 25.8477 18.9844 25.9086 17.6562C25.9695 16.3232 25.9848 15.8984 25.9848 12.5049C25.9848 9.11133 25.9695 8.68652 25.9086 7.35351C25.8477 6.02539 25.6242 5.1123 25.3043 4.32129C24.9844 3.49121 24.5426 2.79297 23.8164 2.09961C23.0953 1.40625 22.3691 0.976562 21.516 0.65918C20.6883 0.351562 19.7438 0.136719 18.3625 0.078125C16.9711 0.0146484 16.5293 0 13 0Z" fill="#000100"/>
<path d="M13 6.0791C9.31328 6.0791 6.32227 8.95508 6.32227 12.5C6.32227 16.0449 9.31328 18.9209 13 18.9209C16.6867 18.9209 19.6777 16.0449 19.6777 12.5C19.6777 8.95508 16.6867 6.0791 13 6.0791ZM13 16.665C10.6082 16.665 8.66836 14.7998 8.66836 12.5C8.66836 10.2002 10.6082 8.33496 13 8.33496C15.3918 8.33496 17.3316 10.2002 17.3316 12.5C17.3316 14.7998 15.3918 16.665 13 16.665Z" fill="#000100"/>
<path d="M21.5008 5.8252C21.5008 6.65528 20.8 7.32422 19.9418 7.32422C19.0785 7.32422 18.3828 6.6504 18.3828 5.8252C18.3828 4.99512 19.0836 4.32617 19.9418 4.32617C20.8 4.32617 21.5008 5 21.5008 5.8252Z" fill="#000100"/>
</svg>
