<svg width="26" height="25" viewBox="0 0 26 25" fill="none" xmlns="http://www.w3.org/2000/svg">
<path d="M13 25C20.1797 25 26 19.4036 26 12.5C26 5.59644 20.1797 0 13 0C5.8203 0 0 5.59644 0 12.5C0 19.4036 5.8203 25 13 25Z" fill="url(#paint0_linear_51_61)"/>
<path fill-rule="evenodd" clip-rule="evenodd" d="M5.8846 12.3681C9.67437 10.7804 12.2015 9.73377 13.4659 9.22808C17.0762 7.78421 17.8263 7.53339 18.3153 7.52511C18.4228 7.52329 18.6633 7.54892 18.819 7.67044C18.9505 7.77305 18.9867 7.91167 19.0041 8.00896C19.0214 8.10624 19.0429 8.32787 19.0258 8.50104C18.8301 10.4776 17.9836 15.2741 17.5529 17.4879C17.3707 18.4246 17.0119 18.7387 16.6645 18.7694C15.9096 18.8362 15.3363 18.2897 14.6051 17.8288C13.461 17.1077 12.8146 16.6587 11.704 15.955C10.4205 15.1417 11.2525 14.6947 11.984 13.9642C12.1754 13.7731 15.5017 10.8639 15.566 10.6C15.5741 10.567 15.5816 10.444 15.5055 10.379C15.4295 10.3141 15.3173 10.3363 15.2364 10.354C15.1216 10.379 13.2938 11.5407 9.75291 13.8389C9.23409 14.1815 8.76416 14.3484 8.34311 14.3396C7.87895 14.33 6.98607 14.0873 6.32232 13.8798C5.50819 13.6254 4.86114 13.4908 4.91748 13.0587C4.94683 12.8336 5.2692 12.6034 5.8846 12.3681Z" fill="white"/>
<defs>
<linearGradient id="paint0_linear_51_61" x1="13" y1="0" x2="13" y2="24.8146" gradientUnits="userSpaceOnUse">
<stop stop-color="#2AABEE"/>
<stop offset="1" stop-color="#229ED9"/>
</linearGradient>
</defs>
</svg>
