<svg width="26" height="25" viewBox="0 0 26 25" fill="none" xmlns="http://www.w3.org/2000/svg">
<path d="M0 12C0 6.34313 0 3.51472 1.82765 1.75736C3.65531 0 6.59685 0 12.48 0H13.52C19.4032 0 22.3447 0 24.1724 1.75736C26 3.51472 26 6.34313 26 12V13C26 18.6569 26 21.4853 24.1724 23.2427C22.3447 25 19.4032 25 13.52 25H12.48C6.59685 25 3.65531 25 1.82765 23.2427C0 21.4853 0 18.6569 0 13V12Z" fill="#0077FF"/>
<path d="M13.8343 18.0105C7.90848 18.0105 4.52853 14.1042 4.3877 7.60425H7.35603C7.45353 12.3751 9.64181 14.3959 11.3751 14.8126V7.60425H14.1703V11.7188C15.8819 11.5417 17.68 9.66675 18.2867 7.60425H21.0818C20.6159 10.1459 18.6659 12.0209 17.2793 12.7917C18.6659 13.4167 20.8869 15.0522 21.7319 18.0105H18.6551C17.9943 16.0313 16.3478 14.5001 14.1703 14.2917V18.0105H13.8343Z" fill="white"/>
</svg>
