<svg width="26" height="25" viewBox="0 0 26 25" fill="none" xmlns="http://www.w3.org/2000/svg">
<g clip-path="url(#clip0_51_60)">
<path d="M25.4822 6.44324C25.3353 5.91138 25.0456 5.42597 24.6422 5.03559C24.2388 4.64521 23.7358 4.36355 23.1836 4.21881C21.1509 3.69324 13.0259 3.69324 13.0259 3.69324C13.0259 3.69324 4.90088 3.69324 2.86815 4.21881C2.31597 4.36355 1.81301 4.64521 1.40961 5.03559C1.0062 5.42597 0.71651 5.91138 0.569515 6.44324C0.025879 8.4063 0.0258789 12.5001 0.0258789 12.5001C0.0258789 12.5001 0.025879 16.5938 0.569515 18.5569C0.71651 19.0887 1.0062 19.5741 1.40961 19.9645C1.81301 20.3549 2.31597 20.6366 2.86815 20.7813C4.90088 21.3069 13.0259 21.3069 13.0259 21.3069C13.0259 21.3069 21.1509 21.3069 23.1836 20.7813C23.7358 20.6366 24.2388 20.3549 24.6422 19.9645C25.0456 19.5741 25.3353 19.0887 25.4822 18.5569C26.0259 16.5938 26.0259 12.5001 26.0259 12.5001C26.0259 12.5001 26.0259 8.4063 25.4822 6.44324Z" fill="#FF0302"/>
<path d="M10.3667 16.2174V8.78271L17.1621 12.5L10.3667 16.2174Z" fill="#FEFEFE"/>
</g>
<defs>
<clipPath id="clip0_51_60">
<rect width="26" height="25" fill="white"/>
</clipPath>
</defs>
</svg>
