<svg id="Layer_1" data-name="Layer 1" xmlns="http://www.w3.org/2000/svg" xmlns:xlink="http://www.w3.org/1999/xlink" viewBox="0 0 125 70"><defs><style>.cls-1{fill:#00503c;}.cls-2{fill:url(#radial-gradient);}</style><radialGradient id="radial-gradient" cx="73.59" cy="17.68" r="25.88" gradientUnits="userSpaceOnUse"><stop offset="0.26" stop-color="#50b848"/><stop offset="1" stop-color="#00664b"/></radialGradient></defs><title>logo</title><path class="cls-1" d="M18.1,63.31a6,6,0,0,0,1.24,2,2.86,2.86,0,0,0,1.69.85v.7a4.64,4.64,0,0,1-.63.1,6.49,6.49,0,0,1-.72,0,8.47,8.47,0,0,1-1.45-.13,5,5,0,0,1-1.52-.5,5.1,5.1,0,0,1-1.41-1.1,6.76,6.76,0,0,1-1.17-1.93l-.65-1.58H5.94L3.61,66.86H2.2l8.32-18.61h1.27ZM6.53,60.46h6.41L9.82,53.1Z"/><path class="cls-1" d="M25.05,61.5a11.16,11.16,0,0,1-1,3.19,4.3,4.3,0,0,1-1.53,1.75,3.71,3.71,0,0,1-1.93.53,6.65,6.65,0,0,1-1-.08,5.84,5.84,0,0,1-.73-.17V65.9a3.19,3.19,0,0,0,2.51-2,10.34,10.34,0,0,0,.76-2.73,28.91,28.91,0,0,0,.28-4.5,6.36,6.36,0,0,0-.07-1,1.72,1.72,0,0,0-.31-.8,1.58,1.58,0,0,0-.65-.54,2.51,2.51,0,0,0-1.08-.2V53.3H33.05V66.55H31.12a1.74,1.74,0,0,1-1.74-1.75V54.57h-4v2.11A27.43,27.43,0,0,1,25.05,61.5Z"/><path class="cls-1" d="M37,57a5.09,5.09,0,0,0-.35-2q-.34-.78-1.62-.78h-.28V53.3h3.38a3.63,3.63,0,0,1,1.23.18,1.65,1.65,0,0,1,.79.61,2.73,2.73,0,0,1,.4,1.13A10.61,10.61,0,0,1,40.63,57v1.7h2.11a7.66,7.66,0,0,1,4.22,1,3.53,3.53,0,0,1,0,5.86,7.66,7.66,0,0,1-4.22,1H37Zm3.67,8.26a2.74,2.74,0,0,0,.67.16,5.1,5.1,0,0,0,.6,0,4.3,4.3,0,0,0,1.1-.14,2.21,2.21,0,0,0,.88-.47,2.13,2.13,0,0,0,.61-.86,3.45,3.45,0,0,0,.23-1.35,3.57,3.57,0,0,0-.23-1.34,2.24,2.24,0,0,0-.61-.87,2.34,2.34,0,0,0-.88-.47,4.3,4.3,0,0,0-1.1-.14l-.6,0a3.29,3.29,0,0,0-.67.16Z"/><path class="cls-1" d="M49.91,54.92a1.59,1.59,0,0,0-1.62-.78h-.14V53.3h9.72a2.3,2.3,0,0,1,1,.2,1.61,1.61,0,0,1,.65.5,2.16,2.16,0,0,1,.33.72,3.85,3.85,0,0,1,.1.83v2h-.85a3.15,3.15,0,0,0-.7-2.29,2.75,2.75,0,0,0-2-.67H53.93V64.8a1.75,1.75,0,0,1-1.75,1.75H50.26V57A5.09,5.09,0,0,0,49.91,54.92Z"/><path class="cls-1" d="M62.57,54.92q-.34-.78-1.62-.78h-.28V53.3h3.38a3.63,3.63,0,0,1,1.23.18,1.65,1.65,0,0,1,.79.61,2.73,2.73,0,0,1,.41,1.13A12,12,0,0,1,66.59,57V63l5.07-9.72h3.39V66.55H73.13a1.75,1.75,0,0,1-1.75-1.75v-8l-5.07,9.73H62.92V57A4.92,4.92,0,0,0,62.57,54.92Z"/><path class="cls-1" d="M92.88,61.76a9.9,9.9,0,0,0,.45,3.46,2,2,0,0,0,1.61,1.33v.7c-2,0-3.51-.45-4.4-1.36a5.76,5.76,0,0,1-1.32-4.13V56.85l-4.06,9.7h-.93l-4.91-10v9.95H77.91V53.3h3.44l4.17,8.48L89.19,53h3.69Z"/><path class="cls-1" d="M101.85,65.56a3.86,3.86,0,0,0,2.38-.68,7.87,7.87,0,0,0,1.65-1.66l.87.65a9.45,9.45,0,0,1-.74,1,5.54,5.54,0,0,1-1.07,1,6.14,6.14,0,0,1-1.5.72,6.4,6.4,0,0,1-2,.28,6.65,6.65,0,0,1-2.69-.52,5.88,5.88,0,0,1-2-1.45,6.5,6.5,0,0,1-1.3-2.19,8.05,8.05,0,0,1-.45-2.75,8.55,8.55,0,0,1,.48-3,6.1,6.1,0,0,1,1.31-2.16,5.58,5.58,0,0,1,2-1.31,6.55,6.55,0,0,1,2.45-.45,7,7,0,0,1,2.46.41,5.9,5.9,0,0,1,2,1.14,5.27,5.27,0,0,1,1.32,1.77,5.66,5.66,0,0,1,.47,2.32c0,.2,0,.41,0,.63s0,.41,0,.58,0,.39-.06.56H98.75a6.83,6.83,0,0,0,.86,4A2.65,2.65,0,0,0,101.85,65.56Zm1.69-6.4a12.64,12.64,0,0,0-.18-2.34,5.27,5.27,0,0,0-.5-1.49,1.9,1.9,0,0,0-.74-.81,2.14,2.14,0,0,0-1-.23,2,2,0,0,0-.91.23,2,2,0,0,0-.76.81,5.22,5.22,0,0,0-.53,1.49,11.73,11.73,0,0,0-.19,2.34Z"/><path class="cls-1" d="M108,68.8a4.22,4.22,0,0,1,.65-1.38,1.93,1.93,0,0,1,.93-.69,3.8,3.8,0,0,1,1.21-.18h8.09a3.86,3.86,0,0,1,1.22.18,2,2,0,0,1,.93.69,4.22,4.22,0,0,1,.65,1.38c0,.14.07.29.11.44h1v-3a1,1,0,0,0-.28-.71,1,1,0,0,0-.71-.28H121v-9.8a2.17,2.17,0,0,0-2.18-2.18H108.42v.84a2.64,2.64,0,0,1,1.1.2,1.52,1.52,0,0,1,.65.54,1.82,1.82,0,0,1,.29.8,6.36,6.36,0,0,1,.07,1,27.08,27.08,0,0,1-.36,4.2,17.46,17.46,0,0,1-1.33,4.4h-1a1,1,0,0,0-.71.28,1,1,0,0,0-.28.71v3h1C107.91,69.09,107.94,68.94,108,68.8Zm4.51-5.7a21.33,21.33,0,0,0,.48-2.43q.18-1.28.27-2.79c.06-1,.09-2.11.09-3.31h4V65.28h-5.53A15.46,15.46,0,0,0,112.49,63.1Z"/><path class="cls-1" d="M64.71,38.58c-.29.25-.6.5-.92.75h0C64.11,39.08,64.42,38.83,64.71,38.58Z"/><path class="cls-1" d="M64.85,1.78c-3.67.9-7.73,3-9.82,5.84l0,0s1.63-3.51,7.89-6.25C62.52.77,60.42.59,58.32.93A12.53,12.53,0,0,0,53.79,2.6c-5.86,2.89-14.91,10-15.21,23.09C38.25,40,47.47,45,55.63,43.37a18.46,18.46,0,0,0,6.91-3.11c.44-.3.85-.61,1.25-.93-1.6.08-1.14-.26-2.35-.46-2.93,2.19-8.25,4-13.17.46C43.61,36,41,24.82,46,16.57c-.48,5.49,1.22,9.74,3.64,12.17-.39-6.32,6.07-10.32,9.9-12C64.18,14.66,72,11.83,72.63,6.6,73,4.06,71.28.22,64.85,1.78Z"/><path class="cls-1" d="M81.18,36.36A16.37,16.37,0,0,1,76.5,41.3s1.09,2.06,6.45,1.44C82.15,42,80.94,39.78,81.18,36.36Z"/><path class="cls-2" d="M73.78,3.29C78.18,14,66.23,17,63.66,18.53c-5.29,3.26-10.95,6.15-10.85,12.86.08,5.14,3,8.31,11,7.94a30.46,30.46,0,0,0,3.42-3.13,42.47,42.47,0,0,0,3-3.59l1-1.39.71-1,.51-.76.06,0-.37.8c-.24.53-.61,1.31-1.11,2.27s-1.16,2.12-2,3.41A25.52,25.52,0,0,1,65.85,40c-.35.34-.72.69-1.13,1,.61.82,1.82,1.55,4.22,1.29,6.55-.69,13-6.43,13.8-17.21C83.5,15.44,79.18,7.08,73.78,3.29Z"/></svg>